<svg version="1.1" xmlns="http://www.w3.org/2000/svg" xmlns:xlink="http://www.w3.org/1999/xlink" width="1560" height="804"><defs/><g><path fill="none" stroke="#02063B" paint-order="fill stroke markers" d=" M 20 414.66825620776956 L 21 415.3006242556085 L 22 415.9328394667739 L 23 416.5648945765187 L 24 417.1967823219357 L 25 417.8284954420408 L 26 418.46002667785643 L 27 419.09136877249523 L 28 419.72251447124313 L 29 420.3534565216429 L 30 420.98418767357725 L 31 421.61470067935255 L 32 422.2449882937817 L 33 422.8750432742676 L 34 423.5048583808865 L 35 424.1344263764707 L 36 424.7637400266923 L 37 425.392792100146 L 38 426.0215753684322 L 39 426.65008260624023 L 40 427.27830659143115 L 41 427.9062401051209 L 42 428.53387593176336 L 43 429.16120685923283 L 44 429.78822567890745 L 45 430.4149251857516 L 46 431.04129817839896 L 47 431.6673374592351 L 48 432.2930358344804 L 49 432.91838611427227 L 50 433.5433811127484 L 51 434.16801364812875 L 52 434.7922765427985 L 53 435.41616262339016 L 54 436.0396647208663 L 55 436.6627756706019 L 56 437.28548831246644 L 57 437.90779549090644 L 58 438.52969005502746 L 59 439.15116485867645 L 60 439.77221276052387 L 61 440.39282662414564 L 62 441.0129993181051 L 63 441.6327237160351 L 64 442.25199269672 L 65 442.87079914417694 L 66 443.4891359477384 L 67 444.10699600213337 L 68 444.72437220756905 L 69 445.34125746981255 L 70 445.95764470027245 L 71 446.57352681608023 L 72 447.1888967401714 L 73 447.8037474013672 L 74 448.4180717344557 L 75 449.03186268027287 L 76 449.6451131857839 L 77 450.25781620416404 L 78 450.86996469487985 L 79 451.48155162376975 L 80 452.09256996312513 L 81 452.703012691771 L 82 453.31287279514663 L 83 453.92214326538635 L 84 454.5308171013997 L 85 455.13888730895223 L 86 455.74634690074583 L 87 456.35318889649886 L 88 456.95940632302637 L 89 457.56499221432034 L 90 458.1699396116298 L 91 458.7742415635405 L 92 459.3778911260551 L 93 459.98088136267273 L 94 460.5832053444688 L 95 461.18485615017477 L 96 461.78582686625737 L 97 462.38611058699814 L 98 462.9857004145731 L 99 463.5845894591314 L 100 464.18277083887523 L 101 464.78023768013816 L 102 465.37698311746476 L 103 465.97300029368904 L 104 466.5682823600134 L 105 467.1628224760876 L 106 467.7566138100867 L 107 468.34964953879035 L 108 468.9419228476605 L 109 469.5334269309203 L 110 470.1241549916318 L 111 470.7141002417744 L 112 471.3032559023228 L 113 471.8916152033246 L 114 472.4791713839785 L 115 473.0659176927117 L 116 473.6518473872577 L 117 474.2369537347337 L 118 474.82123001171766 L 119 475.4046695043261 L 120 475.98726550829093 L 121 476.5690113290364 L 122 477.1499002817564 L 123 477.7299256914908 L 124 478.30908089320246 L 125 478.8873592318539 L 126 479.4647540624834 L 127 480.04125875028177 L 128 480.6168666706682 L 129 481.19157120936677 L 130 481.7653657624821 L 131 482.3382437365756 L 132 482.91019854874077 L 133 483.48122362667937 L 134 484.0513124087765 L 135 484.6204583441763 L 136 485.18865489285696 L 137 485.7558955257062 L 138 486.3221737245959 L 139 486.8874829824575 L 140 487.45181680335617 L 141 488.0151687025659 L 142 488.577532206644 L 143 489.13890085350516 L 144 489.699268192496 L 145 490.2586277844692 L 146 490.81697320185725 L 147 491.3742980287466 L 148 491.9305958609511 L 149 492.4858603060859 L 150 493.04008498364055 L 151 493.59326352505263 L 152 494.14538957378085 L 153 494.6964567853779 L 154 495.24645882756363 L 155 495.79538938029765 L 156 496.34324213585194 L 157 496.89001079888345 L 158 497.43568908650633 L 159 497.98027072836425 L 160 498.52374946670227 L 161 499.0661190564388 L 162 499.6073732652377 L 163 500.1475058735792 L 164 500.68651067483205 L 165 501.2243814753245 L 166 501.7611120944155 L 167 502.29669636456583 L 168 502.8311281314088 L 169 503.3644012538211 L 170 503.8965096039933 L 171 504.4274470675005 L 172 504.9572075433721 L 173 505.48578494416233 L 174 506.01317319602015 L 175 506.53936623875876 L 176 507.0643580259256 L 177 507.5881425248716 L 178 508.11071371682056 L 179 508.6320655969384 L 180 509.15219217440193 L 181 509.671087472468 L 182 510.18874552854186 L 183 510.7051603942459 L 184 511.2203261354881 L 185 511.73423683252975 L 186 512.2468865800539 L 187 512.7582694872333 L 188 513.2683796777976 L 189 513.7772112901014 L 190 514.284758477191 L 191 514.7910154068722 L 192 515.2959762617775 L 193 515.7996352394315 L 194 516.3019865523195 L 195 516.8030244279527 L 196 517.302743108935 L 197 517.8011368530291 L 198 518.2981999332223 L 199 518.793926637793 L 200 519.2883112703751 L 201 519.7813481500245 L 202 520.2730316112844 L 203 520.7633560042493 L 204 521.2523156946314 L 205 521.7399050638242 L 206 522.2261185089674 L 207 522.7109504430118 L 208 523.1943952947827 L 209 523.6764475090442 L 210 524.1571015465637 L 211 524.6363518841741 L 212 525.1141930148389 L 213 525.5906194477143 L 214 526.0656257082127 L 215 526.5392063380659 L 216 527.0113558953872 L 217 527.4820689547346 L 218 527.9513401071724 L 219 528.4191639603343 L 220 528.8855351384843 L 221 529.3504482825794 L 222 529.8138980503304 L 223 530.275879116264 L 224 530.7363861717836 L 225 531.1954139252304 L 226 531.6529571019438 L 227 532.1090104443228 L 228 532.563568711886 L 229 533.0166266813314 L 230 533.4681791465975 L 231 533.9182209189217 L 232 534.3667468269014 L 233 534.8137517165519 L 234 535.2592304513673 L 235 535.7031779123781 L 236 536.1455889982108 L 237 536.586458625146 L 238 537.0257817271776 L 239 537.4635532560699 L 240 537.8997681814169 L 241 538.334421490699 L 242 538.7675081893412 L 243 539.1990233007704 L 244 539.6289618664721 L 245 540.0573189460482 L 246 540.4840896172734 L 247 540.9092689761515 L 248 541.332852136972 L 249 541.7548342323662 L 250 542.1752104133634 L 251 542.5939758494461 L 252 543.0111257286059 L 253 543.4266552573986 L 254 543.8405596609991 L 255 544.2528341832573 L 256 544.6634740867511 L 257 545.0724746528421 L 258 545.4798311817294 L 259 545.8855389925037 L 260 546.2895934232009 L 261 546.6919898308558 L 262 547.0927235915555 L 263 547.4917901004924 L 264 547.8891847720174 L 265 548.2849030396919 L 266 548.6789403563415 L 267 549.0712921941068 L 268 549.4619540444965 L 269 549.8509214184387 L 270 550.2381898463328 L 271 550.6237548781006 L 272 551.0076120832374 L 273 551.3897570508632 L 274 551.7701853897731 L 275 552.1488927284879 L 276 552.5258747153046 L 277 552.9011270183454 L 278 553.2746453256091 L 279 553.646425345019 L 280 554.0164628044735 L 281 554.3847534518941 L 282 554.7512930552753 L 283 555.1160774027326 L 284 555.4791023025508 L 285 555.8403635832328 L 286 556.1998570935469 L 287 556.5575787025747 L 288 556.9135242997588 L 289 557.2676897949497 L 290 557.620071118453 L 291 557.970664221076 L 292 558.3194650741747 L 293 558.6664696696992 L 294 559.0116740202407 L 295 559.3550741590766 L 296 559.6966661402168 L 297 560.0364460384483 L 298 560.3744099493806 L 299 560.7105539894908 L 300 561.0448742961679 L 301 561.3773670277574 L 302 561.7080283636054 L 303 562.0368545041023 L 304 562.3638416707266 L 305 562.6889861060886 L 306 563.012284073973 L 307 563.3337318593823 L 308 563.6533257685794 L 309 563.9710621291298 L 310 564.2869372899443 L 311 564.6009476213202 L 312 564.9130895149838 L 313 565.2233593841312 L 314 565.5317536634701 L 315 565.8382688092604 L 316 566.1429012993551 L 317 566.4456476332402 L 318 566.7465043320763 L 319 567.0454679387367 L 320 567.3425350178488 L 321 567.6377021558326 L 322 567.9309659609403 L 323 568.2223230632951 L 324 568.5117701149301 L 325 568.7993037898266 L 326 569.0849207839524 L 327 569.3686178152999 L 328 569.6503916239235 L 329 569.9302389719774 L 330 570.2081566437523 L 331 570.4841414457132 L 332 570.7581902065352 L 333 571.0302997771405 L 334 571.3004670307345 L 335 571.5686888628413 L 336 571.8349621913402 L 337 572.0992839565002 L 338 572.3616511210159 L 339 572.6220606700421 L 340 572.880509611228 L 341 573.1369949747525 L 342 573.3915138133578 L 343 573.6440632023833 L 344 573.894640239799 L 345 574.1432420462392 L 346 574.3898657650356 L 347 574.6345085622497 L 348 574.8771676267061 L 349 575.117840170024 L 350 575.3565234266495 L 351 575.5932146538878 L 352 575.8279111319341 L 353 576.0606101639055 L 354 576.2913090758714 L 355 576.5200052168842 L 356 576.7466959590105 L 357 576.9713786973606 L 358 577.1940508501186 L 359 577.4147098585725 L 360 577.6333531871423 L 361 577.849978323411 L 362 578.0645827781524 L 363 578.2771640853592 L 364 578.4877198022727 L 365 578.6962475094095 L 366 578.9027448105907 L 367 579.1072093329677 L 368 579.3096387270514 L 369 579.5100306667376 L 370 579.7083828493346 L 371 579.9046929955894 L 372 580.0989588497139 L 373 580.291178179411 L 374 580.4813487758996 L 375 580.6694684539411 L 376 580.8555350518635 L 377 581.0395464315868 L 378 581.2215004786472 L 379 581.4013951022216 L 380 581.579228235152 L 381 581.7549978339682 L 382 581.9287018789125 L 383 582.1003383739621 L 384 582.2699053468525 L 385 582.4374008490996 L 386 582.6028229560228 L 387 582.7661697667666 L 388 582.9274394043226 L 389 583.086630015551 L 390 583.2437397712023 L 391 583.3987668659374 L 392 583.5517095183496 L 393 583.7025659709839 L 394 583.8513344903579 L 395 583.9980133669815 L 396 584.1426009153765 L 397 584.2850954740962 L 398 584.4254954057442 L 399 584.5637990969931 L 400 584.7000049586037 L 401 584.8341114254425 L 402 584.9661169565004 L 403 585.0960200349095 L 404 585.2238191679614 L 405 585.3495128871241 L 406 585.4730997480585 L 407 585.5945783306355 L 408 585.7139472389518 L 409 585.8312051013468 L 410 585.946350570417 L 411 586.0593823230332 L 412 586.1702990603541 L 413 586.279099507842 L 414 586.3857824152778 L 415 586.4903465567745 L 416 586.5927907307918 L 417 586.6931137601498 L 418 586.7913144920428 L 419 586.8873917980519 L 420 586.9813445741587 L 421 587.0731717407573 L 422 587.1628722426675 L 423 587.250445049146 L 424 587.3358891538992 L 425 587.4192035750938 L 426 587.5003873553688 L 427 587.5794395618465 L 428 587.6563592861424 L 429 587.731145644377 L 430 587.8037977771843 L 431 587.8743148497233 L 432 587.9426960516864 L 433 588.0089405973096 L 434 588.0730477253804 L 435 588.135016699248 L 436 588.1948468068305 L 437 588.2525373606236 L 438 588.308087697709 L 439 588.3614971797606 L 440 588.4127651930537 L 441 588.4618911484704 L 442 588.5088744815073 L 443 588.5537146522819 L 444 588.5964111455385 L 445 588.6369634706539 L 446 588.6753711616443 L 447 588.7116337771688 L 448 588.7457509005361 L 449 588.7777221397083 L 450 588.8075471273058 L 451 588.8352255206116 L 452 588.8607570015747 L 453 588.8841412768147 L 454 588.9053780776239 L 455 588.924467159972 L 456 588.941408304507 L 457 588.9562013165596 L 458 588.968846026144 L 459 588.9793422879607 L 460 588.9876899813976 L 461 588.993889010532 L 462 588.9979393041314 L 463 588.9998408156538 L 464 588.9995935232491 L 465 588.9971974297592 L 466 588.9926525627172 L 467 588.9859589743479 L 468 588.9771167415671 L 469 588.9661259659802 L 470 588.9529867738815 L 471 588.9376993162529 L 472 588.9202637687615 L 473 588.900680331758 L 474 588.8789492302749 L 475 588.8550707140225 L 476 588.8290450573877 L 477 588.8008725594296 L 478 588.7705535438769 L 479 588.7380883591234 L 480 588.7034773782245 L 481 588.6667209988931 L 482 588.6278196434945 L 483 588.5867737590418 L 484 588.5435838171907 L 485 588.4982503142344 L 486 588.4507737710974 L 487 588.4011547333298 L 488 588.3493937711008 L 489 588.2954914791928 L 490 588.2394484769936 L 491 588.1812654084902 L 492 588.1209429422604 L 493 588.0584817714662 L 494 587.9938826138451 L 495 587.9271462117024 L 496 587.8582733319017 L 497 587.7872647658573 L 498 587.7141213295245 L 499 587.6388438633899 L 500 587.5614332324625 L 501 587.481890326263 L 502 587.4002160588144 L 503 587.3164113686307 L 504 587.2304772187065 L 505 587.1424145965059 L 506 587.0522245139514 L 507 586.9599080074117 L 508 586.8654661376902 L 509 586.7688999900128 L 510 586.6702106740152 L 511 586.5693993237305 L 512 586.4664670975758 L 513 586.3614151783393 L 514 586.254244773166 L 515 586.1449571135447 L 516 586.0335534552935 L 517 585.9200350785449 L 518 585.8044032877318 L 519 585.6866594115722 L 520 585.5668048030539 L 521 585.4448408394189 L 522 585.320768922148 L 523 585.194590476944 L 524 585.0663069537158 L 525 584.9359198265615 L 526 584.8034305937522 L 527 584.6688407777133 L 528 584.5321519250083 L 529 584.3933656063208 L 530 584.252483416436 L 531 584.1095069742225 L 532 583.9644379226141 L 533 583.8172779285907 L 534 583.6680286831587 L 535 583.5166919013324 L 536 583.3632693221134 L 537 583.2077627084717 L 538 583.0501738473241 L 539 582.890504549515 L 540 582.7287566497945 L 541 582.5649320067981 L 542 582.399032503025 L 543 582.2310600448161 L 544 582.0610165623332 L 545 581.8889040095355 L 546 581.714724364158 L 547 581.5384796276887 L 548 581.3601718253451 L 549 581.1798030060515 L 550 580.9973752424153 L 551 580.8128906307027 L 552 580.6263512908154 L 553 580.4377593662657 L 554 580.2471170241521 L 555 580.0544264551344 L 556 579.8596898734081 L 557 579.6629095166797 L 558 579.4640876461406 L 559 579.2632265464406 L 560 579.0603285256628 L 561 578.8553959152962 L 562 578.6484310702089 L 563 578.4394363686215 L 564 578.2284142120795 L 565 578.0153670254261 L 566 577.8002972567735 L 567 577.5832073774757 L 568 577.364099882099 L 569 577.1429772883948 L 570 576.9198421372696 L 571 576.6946969927557 L 572 576.4675444419826 L 573 576.2383870951465 L 574 576.0072275854809 L 575 575.7740685692257 L 576 575.5389127255971 L 577 575.3017627567568 L 578 575.062621387781 L 579 574.8214913666284 L 580 574.5783754641099 L 581 574.3332764738554 L 582 574.0861972122832 L 583 573.8371405185658 L 584 573.5861092545987 L 585 573.3331063049673 L 586 573.078134576913 L 587 572.8211970003009 L 588 572.562296527585 L 589 572.3014361337752 L 590 572.0386188164025 L 591 571.773847595485 L 592 571.5071255134927 L 593 571.2384556353132 L 594 570.967841048216 L 595 570.6952848618167 L 596 570.4207902080423 L 597 570.1443602410943 L 598 569.8659981374129 L 599 569.5857070956401 L 600 569.3034903365838 L 601 569.0193511031794 L 602 568.7332926604538 L 603 568.4453182954876 L 604 568.1554313173766 L 605 567.863635057195 L 606 567.5699328679558 L 607 567.2743281245733 L 608 566.9768242238239 L 609 566.6774245843069 L 610 566.3761326464055 L 611 566.0729518722475 L 612 565.7678857456647 L 613 565.4609377721538 L 614 565.1521114788354 L 615 564.8414104144139 L 616 564.5288381491365 L 617 564.2143982747524 L 618 563.8980944044713 L 619 563.5799301729218 L 620 563.25990923611 L 621 562.9380352713774 L 622 562.6143119773583 L 623 562.2887430739374 L 624 561.9613323022077 L 625 561.6320834244265 L 626 561.301000223973 L 627 560.9680865053042 L 628 560.6333460939117 L 629 560.2967828362774 L 630 559.9584005998295 L 631 559.618203272898 L 632 559.2761947646698 L 633 558.9323790051441 L 634 558.5867599450872 L 635 558.2393415559869 L 636 557.890127830007 L 637 557.5391227799416 L 638 557.1863304391684 L 639 556.8317548616031 L 640 556.4754001216522 L 641 556.1172703141668 L 642 555.7573695543948 L 643 555.3957019779343 L 644 555.0322717406857 L 645 554.6670830188039 L 646 554.3001400086505 L 647 553.9314469267458 L 648 553.5610080097197 L 649 553.1888275142634 L 650 552.8149097170807 L 651 552.4392589148385 L 652 552.0618794241178 L 653 551.6827755813633 L 654 551.3019517428347 L 655 550.9194122845558 L 656 550.5351616022643 L 657 550.149204111362 L 658 549.761544246863 L 659 549.3721864633436 L 660 548.9811352348906 L 661 548.5883950550502 L 662 548.1939704367762 L 663 547.7978659123781 L 664 547.4000860334693 L 665 547.0006353709144 L 666 546.599518514777 L 667 546.1967400742667 L 668 545.7923046776863 L 669 545.3862169723786 L 670 544.9784816246733 L 671 544.5691033198325 L 672 544.1580867619978 L 673 543.7454366741356 L 674 543.3311577979835 L 675 542.9152548939948 L 676 542.4977327412851 L 677 542.0785961375761 L 678 541.6578498991415 L 679 541.235498860751 L 680 540.8115478756149 L 681 540.3860018153287 L 682 539.9588655698161 L 683 539.5301440472745 L 684 539.099842174117 L 685 538.6679648949165 L 686 538.2345171723489 L 687 537.7995039871358 L 688 537.3629303379877 L 689 536.9248012415461 L 690 536.485121732326 L 691 536.0438968626584 L 692 535.6011317026316 L 693 535.1568313400336 L 694 534.7110008802929 L 695 534.2636454464207 L 696 533.8147701789512 L 697 533.3643802358835 L 698 532.912480792621 L 699 532.4590770419129 L 700 532.0041741937949 L 701 531.5477774755279 L 702 531.0898921315395 L 703 530.6305234233623 L 704 530.1696766295746 L 705 529.7073570457394 L 706 529.2435699843429 L 707 528.7783207747347 L 708 528.3116147630652 L 709 527.8434573122253 L 710 527.373853801784 L 711 526.9028096279271 L 712 526.4303302033948 L 713 525.9564209574198 L 714 525.4810873356648 L 715 525.0043348001598 L 716 524.5261688292394 L 717 524.0465949174803 L 718 523.5656185756372 L 719 523.0832453305807 L 720 522.5994807252323 L 721 522.1143303185023 L 722 521.6277996852247 L 723 521.1398944160937 L 724 520.6506201175998 L 725 520.1599824119642 L 726 519.6679869370753 L 727 519.1746393464234 L 728 518.6799453090364 L 729 518.1839105094134 L 730 517.6865406474606 L 731 517.1878414384252 L 732 516.6878186128296 L 733 516.1864779164063 L 734 515.683825110031 L 735 515.1798659696568 L 736 514.6746062862479 L 737 514.1680518657131 L 738 513.6602085288387 L 739 513.1510821112219 L 740 512.6406784632037 L 741 512.1290034498018 L 742 511.616062950643 L 743 511.10186285989585 L 744 510.5864090862025 L 745 510.0697075526114 L 746 509.55176419650877 L 747 509.03258496955056 L 748 508.512175837594 L 749 507.9905427806291 L 750 507.4676917927102 L 751 506.9436288818863 L 752 506.41836007013296 L 753 505.8918913932824 L 754 505.3642289009545 L 755 504.8353786564875 L 756 504.3053467368674 L 757 503.77413923265937 L 758 503.24176224793683 L 759 502.7082219002117 L 760 502.17352432036404 L 761 501.6376756525715 L 762 501.100682054239 L 763 500.5625496959277 L 764 500.0232847612842 L 765 499.48289344696923 L 766 498.94138196258723 L 767 498.3987565306138 L 768 497.85502338632534 L 769 497.3101887777266 L 770 496.76425896547937 L 771 496.21724022283036 L 772 495.6691388355389 L 773 495.11996110180513 L 774 494.56971333219747 L 775 494.0184018495798 L 776 493.4660329890394 L 777 492.9126130978134 L 778 492.3581485352167 L 779 491.8026456725682 L 780 491.2461108931178 L 781 490.68855059197335 L 782 490.1299711760265 L 783 489.57037906387995 L 784 489.009780685773 L 785 488.4481824835078 L 786 487.88559091037564 L 787 487.3220124310824 L 788 486.7574535216744 L 789 486.1919206694643 L 790 485.625420372956 L 791 485.0579591417703 L 792 484.48954349657026 L 793 483.92017996898574 L 794 483.34987510153877 L 795 482.7786354475685 L 796 482.20646757115514 L 797 481.63337804704565 L 798 481.0593734605771 L 799 480.4844604076017 L 800 479.90864549441096 L 801 479.33193533765916 L 802 478.7543365642881 L 803 478.1758558114508 L 804 477.59649972643444 L 805 477.0162749665853 L 806 476.4351881992309 L 807 475.8532461016045 L 808 475.27045536076787 L 809 474.68682267353415 L 810 474.1023547463916 L 811 473.5170582954259 L 812 472.93094004624345 L 813 472.34400673389393 L 814 471.75626510279255 L 815 471.1677219066431 L 816 470.5783839083602 L 817 469.9882578799911 L 818 469.39735060263877 L 819 468.80566886638303 L 820 468.21321947020317 L 821 467.6200092218997 L 822 467.02604493801573 L 823 466.4313334437592 L 824 465.8358815729242 L 825 465.2396961678123 L 826 464.64278407915424 L 827 464.0451521660308 L 828 463.44680729579443 L 829 462.8477563439901 L 830 462.2480061942762 L 831 461.6475637383456 L 832 461.0464358758466 L 833 460.44462951430324 L 834 459.84215156903633 L 835 459.2390089630835 L 836 458.6352086271204 L 837 458.0307574993803 L 838 457.42566252557464 L 839 456.81993065881363 L 840 456.2135688595255 L 841 455.6065840953773 L 842 454.9989833411946 L 843 454.3907735788809 L 844 453.7819617973381 L 845 453.1725549923859 L 846 452.5625601666811 L 847 451.9519843296377 L 848 451.3408344973457 L 849 450.7291176924913 L 850 450.1168409442755 L 851 449.50401128833346 L 852 448.890635766654 L 853 448.2767214274984 L 854 447.6622753253193 L 855 447.0473045206801 L 856 446.4318160801731 L 857 445.8158170763391 L 858 445.1993145875857 L 859 444.58231569810573 L 860 443.96482749779653 L 861 443.34685708217773 L 862 442.72841155231026 L 863 442.1094980147146 L 864 441.49012358128886 L 865 440.87029536922745 L 866 440.25002050093923 L 867 439.62930610396523 L 868 439.0081593108974 L 869 438.38658725929605 L 870 437.7645970916083 L 871 437.1421959550859 L 872 436.5193910017028 L 873 435.89618938807314 L 874 435.27259827536943 L 875 434.64862482923945 L 876 434.0242762197247 L 877 433.3995596211774 L 878 432.7744822121784 L 879 432.1490511754548 L 880 431.52327369779687 L 881 430.897156969976 L 882 430.270708186662 L 883 429.64393454633995 L 884 429.01684325122824 L 885 428.38944150719516 L 886 427.76173652367646 L 887 427.1337355135924 L 888 426.5054456932647 L 889 425.87687428233403 L 890 425.2480285036766 L 891 424.6189155833215 L 892 423.9895427503675 L 893 423.3599172368998 L 894 422.7300462779075 L 895 422.0999371111999 L 896 421.4695969773235 L 897 420.83903311947887 L 898 420.2082527834374 L 899 419.577263217458 L 900 418.9460716722039 L 901 418.3146854006591 L 902 417.6831116580452 L 903 417.0513577017384 L 904 416.41943079118516 L 905 415.7873381878198 L 906 415.1550871549802 L 907 414.5226849578251 L 908 413.8901388632502 L 909 413.2574561398044 L 910 412.62464405760704 L 911 411.9917098882637 L 912 411.3586609047827 L 913 410.7255043814921 L 914 410.09224759395516 L 915 409.45889781888775 L 916 408.825462334074 L 917 408.1919484182829 L 918 407.55836335118494 L 919 406.9247144132678 L 920 406.29100888575346 L 921 405.6572540505141 L 922 405.0234571899883 L 923 404.38962558709767 L 924 403.7557665251632 L 925 403.1218872878211 L 926 402.4879951589397 L 927 401.8540974225352 L 928 401.2202013626884 L 929 400.58631426346096 L 930 399.95244340881123 L 931 399.3185960825112 L 932 398.6847795680624 L 933 398.0510011486122 L 934 397.4172681068705 L 935 396.78358772502526 L 936 396.14996728465985 L 937 395.51641406666874 L 938 394.8829353511736 L 939 394.24953841744053 L 940 393.61623054379544 L 941 392.98301900754103 L 942 392.34991108487316 L 943 391.7169140507967 L 944 391.08403517904253 L 945 390.4512817419839 L 946 389.81866101055226 L 947 389.18618025415464 L 948 388.55384674058917 L 949 387.9216677359623 L 950 387.28965050460505 L 951 386.6578023089893 L 952 386.02613040964474 L 953 385.39464206507523 L 954 384.7633445316753 L 955 384.13224506364696 L 956 383.5013509129162 L 957 382.87066932904986 L 958 382.2402075591721 L 959 381.6099728478812 L 960 380.97997243716617 L 961 380.35021356632416 L 962 379.72070347187616 L 963 379.0914493874851 L 964 378.4624585438716 L 965 377.83373816873177 L 966 377.2052954866536 L 967 376.5771377190341 L 968 375.94927208399656 L 969 375.32170579630707 L 970 374.6944460672922 L 971 374.06750010475577 L 972 373.4408751128961 L 973 372.8145782922233 L 974 372.1886168394766 L 975 371.5629979475412 L 976 370.9377288053664 L 977 370.31281659788215 L 978 369.68826850591705 L 979 369.06409170611585 L 980 368.44029337085647 L 981 367.81688066816804 L 982 367.19386076164864 L 983 366.5712408103823 L 984 365.9490279688577 L 985 365.32722938688494 L 986 364.70585220951426 L 987 364.0849035769536 L 988 363.46439062448604 L 989 362.8443204823888 L 990 362.22470027585064 L 991 361.60553712488996 L 992 360.98683814427346 L 993 360.36861044343374 L 994 359.75086112638826 L 995 359.1335972916573 L 996 358.51682603218234 L 997 357.900554435245 L 998 357.284789582385 L 999 356.66953854931927 L 1000 356.05480840586057 L 1001 355.4406062158358 L 1002 354.82693903700556 L 1003 354.21381392098255 L 1004 353.60123791315044 L 1005 352.98921805258345 L 1006 352.3777613719648 L 1007 351.7668748975066 L 1008 351.1565656488687 L 1009 350.54684063907774 L 1010 349.93770687444726 L 1011 349.3291713544968 L 1012 348.72124107187125 L 1013 348.1139230122611 L 1014 347.50722415432153 L 1015 346.9011514695927 L 1016 346.2957119224195 L 1017 345.69091246987114 L 1018 345.0867600616619 L 1019 344.4832616400708 L 1020 343.8804241398618 L 1021 343.27825448820454 L 1022 342.67675960459405 L 1023 342.075946400772 L 1024 341.4758217806469 L 1025 340.8763926402145 L 1026 340.2776658674791 L 1027 339.6796483423739 L 1028 339.08234693668254 L 1029 338.4857685139595 L 1030 337.8899199294515 L 1031 337.2948080300187 L 1032 336.7004396540565 L 1033 336.10682163141576 L 1034 335.5139607833258 L 1035 334.92186392231474 L 1036 334.3305378521322 L 1037 333.73998936767043 L 1038 333.15022525488644 L 1039 332.5612522907244 L 1040 331.9730772430371 L 1041 331.3857068705086 L 1042 330.7991479225767 L 1043 330.2134071393549 L 1044 329.62849125155526 L 1045 329.0444069804112 L 1046 328.4611610375999 L 1047 327.87876012516546 L 1048 327.2972109354416 L 1049 326.71652015097527 L 1050 326.1366944444493 L 1051 325.557740478606 L 1052 324.97966490617057 L 1053 324.4024743697747 L 1054 323.82617550188013 L 1055 323.2507749247025 L 1056 322.67627925013517 L 1057 322.1026950796735 L 1058 321.53002900433864 L 1059 320.95828760460205 L 1060 320.38747745030975 L 1061 319.817605100607 L 1062 319.2486771038626 L 1063 318.68069999759405 L 1064 318.1136803083919 L 1065 317.54762455184556 L 1066 316.9825392324676 L 1067 316.4184308436195 L 1068 315.85530586743664 L 1069 315.29317077475457 L 1070 314.7320320250336 L 1071 314.1718960662855 L 1072 313.6127693349988 L 1073 313.0546582560651 L 1074 312.4975692427055 L 1075 311.94150869639606 L 1076 311.3864830067953 L 1077 310.8324985516699 L 1078 310.279561696822 L 1079 309.72767879601577 L 1080 309.17685619090435 L 1081 308.6271002109572 L 1082 308.07841717338744 L 1083 307.53081338307857 L 1084 306.98429513251295 L 1085 306.4388687016989 L 1086 305.89454035809877 L 1087 305.35131635655694 L 1088 304.8092029392275 L 1089 304.26820633550324 L 1090 303.72833276194376 L 1091 303.1895884222036 L 1092 302.6519795069617 L 1093 302.1155121938498 L 1094 301.5801926473814 L 1095 301.04602701888143 L 1096 300.5130214464148 L 1097 299.9811820547166 L 1098 299.4505149551214 L 1099 298.9210262454927 L 1100 298.39272201015365 L 1101 297.86560831981626 L 1102 297.3396912315124 L 1103 296.8149767885237 L 1104 296.29147102031214 L 1105 295.7691799424512 L 1106 295.2481095565561 L 1107 294.7282658502154 L 1108 294.2096547969219 L 1109 293.6922823560039 L 1110 293.17615447255713 L 1111 292.6612770773761 L 1112 292.14765608688583 L 1113 291.63529740307445 L 1114 291.1242069134246 L 1115 290.6143904908464 L 1116 290.10585399360986 L 1117 289.5986032652771 L 1118 289.09264413463586 L 1119 288.5879824156321 L 1120 288.0846239073031 L 1121 287.5825743937116 L 1122 287.0818396438779 L 1123 286.58242541171523 L 1124 286.0843374359624 L 1125 285.58758144011836 L 1126 285.09216313237647 L 1127 284.59808820555867 L 1128 284.1053623370502 L 1129 283.61399118873453 L 1130 283.1239804069278 L 1131 282.63533562231447 L 1132 282.14806244988256 L 1133 281.66216648885853 L 1134 281.1776533226439 L 1135 280.69452851875013 L 1136 280.2127976287354 L 1137 279.7324661881404 L 1138 279.2535397164248 L 1139 278.7760237169039 L 1140 278.2999236766854 L 1141 277.8252450666061 L 1142 277.35199334116953 L 1143 276.88017393848264 L 1144 276.4097922801939 L 1145 275.94085377143074 L 1146 275.4733638007373 L 1147 275.00732774001267 L 1148 274.54275094444927 L 1149 274.07963875247106 L 1150 273.61799648567256 L 1151 273.15782944875707 L 1152 272.69914292947647 L 1153 272.24194219857 L 1154 271.78623250970367 L 1155 271.3320190994102 L 1156 270.87930718702853 L 1157 270.42810197464405 L 1158 269.9784086470287 L 1159 269.5302323715815 L 1160 269.083578298269 L 1161 268.63845155956653 L 1162 268.19485727039836 L 1163 267.75280052808006 L 1164 267.3122864122589 L 1165 266.87331998485615 L 1166 266.4359062900087 L 1167 266.0000503540109 L 1168 265.56575718525727 L 1169 265.13303177418436 L 1170 264.7018790932139 L 1171 264.2723040966954 L 1172 263.84431172084936 L 1173 263.4179068837103 L 1174 262.99309448507086 L 1175 262.56987940642443 L 1176 262.14826651091016 L 1177 261.7282606432566 L 1178 261.3098666297258 L 1179 260.89308927805826 L 1180 260.47793337741746 L 1181 260.0644036983348 L 1182 259.65250499265505 L 1183 259.24224199348157 L 1184 258.8336194151216 L 1185 258.4266419530327 L 1186 258.02131428376845 L 1187 257.6176410649247 L 1188 257.21562693508633 L 1189 256.8152765137732 L 1190 256.41659440138807 L 1191 256.0195851791632 L 1192 255.62425340910752 L 1193 255.23060363395481 L 1194 254.83864037711098 L 1195 254.44836814260205 L 1196 254.05979141502291 L 1197 253.6729146594854 L 1198 253.287742321567 L 1199 252.90427882726001 L 1200 252.52252858292024 L 1201 252.1424959752168 L 1202 251.76418537108162 L 1203 251.38760111765902 L 1204 251.0127475422562 L 1205 250.63962895229278 L 1206 250.26824963525218 L 1207 249.89861385863185 L 1208 249.53072586989416 L 1209 249.16458989641808 L 1210 248.8002101454498 L 1211 248.43759080405522 L 1212 248.07673603907145 L 1213 247.71764999705886 L 1214 247.3603368042536 L 1215 247.0048005665201 L 1216 246.65104536930374 L 1217 246.2990752775844 L 1218 245.94889433582912 L 1219 245.60050656794607 L 1220 245.2539159772383 L 1221 244.90912654635721 L 1222 244.56614223725754 L 1223 244.22496699115132 L 1224 243.88560472846285 L 1225 243.54805934878354 L 1226 243.21233473082685 L 1227 242.8784347323843 L 1228 242.5463631902807 L 1229 242.21612392033015 L 1230 241.88772071729227 L 1231 241.5611573548286 L 1232 241.2364375854589 L 1233 240.91356514051864 L 1234 240.59254373011566 L 1235 240.27337704308766 L 1236 239.95606874695997 L 1237 239.64062248790296 L 1238 239.3270418906907 L 1239 239.015330558659 L 1240 238.70549207366403 L 1241 238.39752999604127 L 1242 238.09144786456423 L 1243 237.78724919640445 L 1244 237.48493748709043 L 1245 237.18451621046793 L 1246 236.88598881865983 L 1247 236.58935874202623 L 1248 236.29462938912567 L 1249 236.00180414667537 L 1250 235.7108863795126 L 1251 235.42187943055592 L 1252 235.1347866207669 L 1253 234.84961124911158 L 1254 234.5663565925231 L 1255 234.28502590586365 L 1256 234.00562242188732 L 1257 233.72814935120275 L 1258 233.45260988223615 L 1259 233.1790071811951 L 1260 232.90734439203177 L 1261 232.63762463640697 L 1262 232.36985101365423 L 1263 232.10402660074402 L 1264 231.84015445224875 L 1265 231.57823760030743 L 1266 231.31827905459082 L 1267 231.06028180226704 L 1268 230.80424880796687 L 1269 230.5501830137501 L 1270 230.2980873390715 L 1271 230.0479646807473 L 1272 229.79981791292195 L 1273 229.5536498870351 L 1274 229.3094634317886 L 1275 229.0672613531144 L 1276 228.827046434142 L 1277 228.5888214351666 L 1278 228.35258909361738 L 1279 228.1183521240259 L 1280 227.88611321799516 L 1281 227.65587504416837 L 1282 227.42764024819863 L 1283 227.2014114527183 L 1284 226.97719125730873 L 1285 226.75498223847077 L 1286 226.53478694959492 L 1287 226.31660792093194 L 1288 226.10044765956405 L 1289 225.8863086493757 L 1290 225.6741933510254 L 1291 225.4641042019173 L 1292 225.2560436161732 L 1293 225.05001398460476 L 1294 224.84601767468615 L 1295 224.64405703052662 L 1296 224.4441343728438 L 1297 224.2462519989369 L 1298 224.0504121826605 L 1299 223.85661717439808 L 1300 223.66486920103642 L 1301 223.47517046593993 L 1302 223.2875231489254 L 1303 223.10192940623688 L 1304 222.91839137052094 L 1305 222.736911150802 L 1306 222.55749083245843 L 1307 222.3801324771983 L 1308 222.20483812303584 L 1309 222.03160978426789 L 1310 221.86044945145093 L 1311 221.691359091378 L 1312 221.52434064705625 L 1313 221.35939603768463 L 1314 221.1965271586317 L 1315 221.035735881414 L 1316 220.87702405367438 L 1317 220.7203934991609 L 1318 220.56584601770587 L 1319 220.4133833852051 L 1320 220.26300735359757 L 1321 220.11471965084516 L 1322 219.96852198091298 L 1323 219.82441602374962 L 1324 219.68240343526801 L 1325 219.54248584732633 L 1326 219.40466486770904 L 1327 219.2689420801088 L 1328 219.13531904410797 L 1329 219.00379729516084 L 1330 218.87437834457597 L 1331 218.7470636794987 L 1332 218.62185476289412 L 1333 218.49875303353045 L 1334 218.37775990596225 L 1335 218.25887677051423 L 1336 218.14210499326543 L 1337 218.02744591603326 L 1338 217.91490085635826 L 1339 217.804471107489 L 1340 217.69615793836704 L 1341 217.58996259361257 L 1342 217.48588629350982 L 1343 217.38393023399334 L 1344 217.28409558663407 L 1345 217.18638349862593 L 1346 217.09079509277268 L 1347 216.99733146747494 L 1348 216.9059936967176 L 1349 216.81678283005746 L 1350 216.72969989261125 L 1351 216.64474588504376 L 1352 216.56192178355644 L 1353 216.48122853987599 L 1354 216.4026670812436 L 1355 216.32623831040436 L 1356 216.25194310559664 L 1357 216.17978232054216 L 1358 216.10975678443614 L 1359 216.04186730193783 L 1360 215.9761146531612 L 1361 215.91249959366598 L 1362 215.851022854449 L 1363 215.79168514193574 L 1364 215.73448713797234 L 1365 215.6794294998176 L 1366 215.62651286013545 L 1367 215.57573782698796 L 1368 215.52710498382788 L 1369 215.48061488949233 L 1370 215.43626807819618 L 1371 215.39406505952596 L 1372 215.35400631843402 L 1373 215.316092315233 L 1374 215.28032348559032 L 1375 215.24670024052352 L 1376 215.21522296639532 L 1377 215.18589202490912 L 1378 215.15870775310506 L 1379 215.13367046335594 L 1380 215.11078044336375 L 1381 215.09003795615635 L 1382 215.0714432400844 L 1383 215.05499650881865 L 1384 215.04069795134754 L 1385 215.02854773197487 L 1386 215.01854599031816 L 1387 215.0106928413068 L 1388 215.0049883751808 L 1389 215.0014326574899 L 1390 215.00002572909258 L 1391 215.00076760615582 L 1392 215.00365828015475 L 1393 215.0086977178728 L 1394 215.01588586140204 L 1395 215.02522262814404 L 1396 215.03670791081055 L 1397 215.0503415774248 L 1398 215.06612347132324 L 1399 215.08405341115702 L 1400 215.10413119089432 L 1401 215.12635657982256 L 1402 215.15072932255114 L 1403 215.17724913901432 L 1404 215.20591572447447 L 1405 215.23672874952564 L 1406 215.26968786009718 L 1407 215.3047926774579 L 1408 215.3420427982205 L 1409 215.38143779434606 L 1410 215.42297721314907 L 1411 215.46666057730252 L 1412 215.51248738484355 L 1413 215.56045710917903 L 1414 215.6105691990918 L 1415 215.66282307874675 L 1416 215.7172181476978 L 1417 215.7737537808944 L 1418 215.83242932868905 L 1419 215.89324411684453 L 1420 215.95619744654172 L 1421 216.02128859438778 L 1422 216.0885168124242 L 1423 216.15788132813555 L 1424 216.2293813444584 L 1425 216.30301603979032 L 1426 216.37878456799947 L 1427 216.45668605843423 L 1428 216.5367196159333 L 1429 216.61888432083583 L 1430 216.70317922899218 L 1431 216.7896033717746 L 1432 216.8781557560885 L 1433 216.9688353643837 L 1434 217.06164115466632 L 1435 217.15657206051057 L 1436 217.25362699107112 L 1437 217.35280483109563 L 1438 217.4541044409375 L 1439 217.55752465656897 L 1440 217.66306428959462 L 1441 217.77072212726478 L 1442 217.8804969324898 L 1443 217.99238744385394 L 1444 218.10639237563012 L 1445 218.22251041779447 L 1446 218.34074023604154 L 1447 218.46108047179962 L 1448 218.5835297422463 L 1449 218.70808664032438 L 1450 218.83474973475805 L 1451 218.96351757006929 L 1452 219.0943886665946 L 1453 219.22736152050211 L 1454 219.3624346038088 L 1455 219.49960636439795 L 1456 219.63887522603713 L 1457 219.78023958839614 L 1458 219.9236978270657 L 1459 220.06924829357575 L 1460 220.21688931541468 L 1461 220.36661919604836 L 1462 220.5184362149397 L 1463 220.6723386275685 L 1464 220.8283246654514 L 1465 220.9863925361622 L 1466 221.14654042335252 L 1467 221.3087664867726 L 1468 221.47306886229248 L 1469 221.63944566192347 L 1470 221.8078949738398 L 1471 221.9784148624005 L 1472 222.1510033681718 L 1473 222.32565850794953 L 1474 222.50237827478205 L 1475 222.68116063799312 L 1476 222.8620035432053 L 1477 223.04490491236373 L 1478 223.22986264375965 L 1479 223.416874612055 L 1480 223.60593866830646 L 1481 223.79705263999034 L 1482 223.9902143310275 L 1483 224.18542152180845 L 1484 224.38267196921922 L 1485 224.58196340666674 L 1486 224.78329354410513 L 1487 224.9866600680618 L 1488 225.19206064166434 L 1489 225.39949290466694 L 1490 225.60895447347818 L 1491 225.8204429411876 L 1492 226.033955877594 L 1493 226.24949082923303 L 1494 226.46704531940549 L 1495 226.68661684820592 L 1496 226.90820289255103 L 1497 227.1318009062089 L 1498 227.35740831982818 L 1499 227.58502254096766 L 1500 227.81464095412605 L 1501 228.04626092077194 L 1502 228.2798797793742 L 1503 228.5154948454326 L 1504 228.75310341150853 L 1505 228.99270274725637 L 1506 229.23429009945443 L 1507 229.47786269203706 L 1508 229.72341772612617 L 1509 229.9709523800637 L 1510 230.2204638094437 L 1511 230.4719491471455 L 1512 230.72540550336612 L 1513 230.98082996565384 L 1514 231.23821959894144 L 1515 231.49757144558018 L 1516 231.75888252537365 L 1517 232.02214983561186 L 1518 232.287370351106 L 1519 232.55454102422308 L 1520 232.82365878492087 L 1521 233.09472054078356 L 1522 233.36772317705663 L 1523 233.64266355668332 L 1524 233.91953852034018 L 1525 234.1983448864737 L 1526 234.47907945133656 L 1527 234.76173898902496 L 1528 235.04632025151506 L 1529 235.33281996870065 L 1530 235.62123484843073 L 1531 235.9115615765472 L 1532 236.20379681692322 L 1533 236.49793721150115 L 1534 236.79397938033136 L 1535 237.09191992161112 L 1536 237.39175541172352 L 1537 237.6934824052771 L 1538 237.99709743514506 L 1539 238.30259701250534" stroke-linecap="round" stroke-linejoin="round" stroke-miterlimit="10" stroke-width="40"/></g></svg>